<?xml version="1.0" encoding="UTF-8" standalone="no"?>
<!-- Created with Inkscape (http://www.inkscape.org/) -->

<svg
   version="1.1"
   id="svg1"
   width="177.33333"
   height="64"
   viewBox="0 0 177.33333 64"
   sodipodi:docname="graph.svg"
   inkscape:version="1.3.2 (091e20ef0f, 2023-11-25, custom)"
   xmlns:inkscape="http://www.inkscape.org/namespaces/inkscape"
   xmlns:sodipodi="http://sodipodi.sourceforge.net/DTD/sodipodi-0.dtd"
   xmlns="http://www.w3.org/2000/svg"
   xmlns:svg="http://www.w3.org/2000/svg">
  <defs
     id="defs1" />
  <sodipodi:namedview
     id="namedview1"
     pagecolor="#ffffff"
     bordercolor="#000000"
     borderopacity="0.25"
     inkscape:showpageshadow="2"
     inkscape:pageopacity="0.0"
     inkscape:pagecheckerboard="0"
     inkscape:deskcolor="#d1d1d1"
     inkscape:zoom="6.1522559"
     inkscape:cx="88.666663"
     inkscape:cy="32.020775"
     inkscape:window-width="1920"
     inkscape:window-height="1012"
     inkscape:window-x="0"
     inkscape:window-y="0"
     inkscape:window-maximized="1"
     inkscape:current-layer="g1">
    <inkscape:page
       x="0"
       y="0"
       inkscape:label="1"
       id="page1"
       width="177.33333"
       height="64"
       margin="0"
       bleed="0" />
  </sodipodi:namedview>
  <g
     id="g1"
     inkscape:groupmode="layer"
     inkscape:label="1">
    <path
       id="path1"
       d="M 1.1835937,-0.50488281 H 0.703125 c -0.2109375,0 -0.328125,0.0820313 -0.328125,0.24609375 0,0.1640625 0.1171875,0.2578124975 0.328125,0.2578124975 H 3.75 c 0.9375,0 1.6992187,-0.7031249975 1.6992187,-1.5585937375 0,-0.6328125 -0.4101562,-1.125 -1.1835937,-1.40625 0.515625,-0.3164063 0.7617187,-0.6796875 0.7617187,-1.171875 0,-0.8320313 -0.75,-1.4765625 -1.7460937,-1.4765625 H 0.703125 c -0.2109375,0 -0.328125,0.082031 -0.328125,0.2578125 0,0.1640625 0.1171875,0.2578125 0.328125,0.2578125 h 0.4804687 z m 0.515625,-2.64843749 v -1.9453125 h 1.5937501 c 0.6796875,0 1.2187499,0.4101562 1.2187499,0.9492187 0,0.5859375 -0.5742187,0.9960938 -1.3945312,0.9960938 z m 0,2.64843749 V -2.6494141 H 3.140625 c 0.5976563,0 0.9140625,0.058594 1.21875,0.234375 0.3632812,0.2109375 0.5742187,0.5273438 0.5742187,0.8671875 0,0.58593754 -0.5273437,1.04296879 -1.2070312,1.04296879 z m 0,0"
       style="fill:#000000;fill-opacity:1;fill-rule:nonzero;stroke:none"
       aria-label="B"
       transform="matrix(1.3333333,0,0,1.3333333,8,17.333333)" />
    <path
       id="path2"
       d="m 185.285,384.039 c 0,49.707 -40.297,90 -89.9998,90 -49.7071,0 -90.00004,-40.293 -90.00004,-90 0,-49.707 40.29294,-90 90.00004,-90 49.7028,0 89.9998,40.293 89.9998,90 z"
       style="fill:none;stroke:#000000;stroke-width:5;stroke-linecap:butt;stroke-linejoin:round;stroke-miterlimit:10;stroke-dasharray:none;stroke-opacity:1"
       transform="matrix(0.13333333,0,0,-0.13333333,0,64)" />
    <path
       id="path3"
       d="m 4.7121375,-5.1337891 c -0.4570313,-0.3867187 -1.03125,-0.5976562 -1.6757813,-0.5976562 -0.6679687,0 -1.2773437,0.2578125 -1.734375,0.7382812 -0.4335937,0.4570313 -0.72656245,1.1601563 -0.72656245,1.7695313 v 0.796875 c 0,1.359375 1.25390625,2.58984374 2.64843745,2.58984374 0.6445313,0 1.265625,-0.2578125 1.7578125,-0.71484375 0.28125,-0.2578125 0.3984375,-0.41015625 0.3984375,-0.53906249 0,-0.140625 -0.09375,-0.234375 -0.2460937,-0.234375 -0.09375,0 -0.140625,0.023437 -0.2226563,0.1054687 -0.5390625,0.62109379 -1.0195312,0.86718754 -1.6875,0.86718754 -1.1484375,0 -2.1210937,-0.97265624 -2.1210937,-2.13281254 v -0.6796875 c 0,-1.1367187 0.8554687,-2.0507812 1.9453125,-2.0507812 0.8554687,0 1.6171875,0.4804687 1.6640625,1.0664062 0.023437,0.1875 0.1054687,0.2695313 0.2578125,0.2695313 0.1757812,0 0.2578125,-0.1054688 0.2578125,-0.3164063 v -1.0898437 c 0,-0.2109375 -0.082031,-0.3164063 -0.2578125,-0.3164063 -0.1640625,0 -0.2578125,0.1171875 -0.2578125,0.3164063 z m 0,0"
       style="fill:#000000;fill-opacity:1;fill-rule:nonzero;stroke:none"
       aria-label="C"
       transform="matrix(1.3333333,0,0,1.3333333,83.4984,17.333333)" />
    <path
       id="path4"
       d="m 752.215,384.039 c 0,49.707 -40.297,90 -90,90 -49.707,0 -90,-40.293 -90,-90 0,-49.707 40.293,-90 90,-90 49.703,0 90,40.293 90,90 z"
       style="fill:none;stroke:#000000;stroke-width:5;stroke-linecap:butt;stroke-linejoin:round;stroke-miterlimit:10;stroke-dasharray:none;stroke-opacity:1"
       transform="matrix(0.13333333,0,0,-0.13333333,0,64)" />
    <path
       id="path5"
       d="m 1.7006094,-2.6494141 h 1.3359375 v 0.3867188 c 0,0.1992187 0.09375,0.3046875 0.2578125,0.3046875 0.1757812,0 0.2578125,-0.09375 0.2578125,-0.3046875 v -1.2890625 c 0,-0.1992188 -0.082031,-0.3164063 -0.2578125,-0.3164063 -0.1640625,0 -0.2578125,0.1171875 -0.2578125,0.3164063 v 0.3984375 H 1.7006094 v -1.9453125 h 2.8125 v 0.9023437 c 0,0.2109375 0.09375,0.3164063 0.2578125,0.3164063 0.1757812,0 0.2578125,-0.1054688 0.2578125,-0.3164063 V -5.6142578 H 0.70451562 c -0.2109375,0 -0.328125,0.082031 -0.328125,0.2578125 0,0.1640625 0.1171875,0.2578125 0.328125,0.2578125 H 1.1849844 v 4.59374999 H 0.70451562 c -0.2109375,0 -0.328125,0.0820313 -0.328125,0.24609375 0,0.1640625 0.1171875,0.2578124975 0.328125,0.2578124975 H 5.2396719 V -1.6181641 c 0,-0.2109375 -0.09375,-0.3164062 -0.2578125,-0.3164062 -0.1640625,0 -0.2578125,0.1054687 -0.2578125,0.3164062 v 1.11328129 H 1.7006094 Z m 0,0"
       style="fill:#000000;fill-opacity:1;fill-rule:nonzero;stroke:none"
       aria-label="E"
       transform="matrix(1.3333333,0,0,1.3333333,159.36533,17.333333)" />
    <path
       id="path6"
       d="m 1319.14,384.039 c 0,49.707 -40.29,90 -90,90 -49.7,0 -90,-40.293 -90,-90 0,-49.707 40.3,-90 90,-90 49.71,0 90,40.293 90,90 z"
       style="fill:none;stroke:#000000;stroke-width:5;stroke-linecap:butt;stroke-linejoin:round;stroke-miterlimit:10;stroke-dasharray:none;stroke-opacity:1"
       transform="matrix(0.13333333,0,0,-0.13333333,0,64)" />
    <path
       id="path7"
       d="m 4.2310172,-1.8279253 0.515625,1.32421874 H 4.0669547 c -0.2109375,0 -0.3164063,0.0820313 -0.3164063,0.24609375 0,0.1640625 0.1054688,0.2578124975 0.3164063,0.2578124975 h 1.546875 c 0.2109375,0 0.328125,-0.0937499975 0.328125,-0.2578124975 0,-0.1640625 -0.1054688,-0.24609375 -0.328125,-0.24609375 H 5.2857047 L 3.3286734,-5.6130816 h -2.0625 c -0.2226562,0 -0.32812496,0.082031 -0.32812496,0.2578125 0,0.1640625 0.11718746,0.2578125 0.32812496,0.2578125 H 2.3677359 L 0.63336094,-0.50370656 H 0.36382969 c -0.2109375,0 -0.328125,0.0820313 -0.328125,0.24609375 0,0.1640625 0.12890625,0.2578124975 0.328125,0.2578124975 H 1.8638297 c 0.2109375,0 0.328125,-0.0937499975 0.328125,-0.2578124975 0,-0.1640625 -0.1054688,-0.24609375 -0.328125,-0.24609375 H 1.1607047 L 1.6528922,-1.8279253 Z M 4.0317984,-2.3435503 H 1.8521109 l 1.0429688,-2.7539063 h 0.070312 z m 0,0"
       style="fill:#000000;fill-opacity:1;fill-rule:nonzero;stroke:none"
       aria-label="A"
       transform="matrix(1.3333333,0,0,1.3333333,45.5188,55.12864)" />
    <path
       id="path8"
       d="m 468.75,100.574 c 0,49.707 -40.297,90 -90,90 -49.707,0 -90,-40.293 -90,-90 0,-49.7068 40.293,-89.9998 90,-89.9998 49.703,0 90,40.293 90,89.9998 z"
       style="fill:none;stroke:#000000;stroke-width:5;stroke-linecap:butt;stroke-linejoin:round;stroke-miterlimit:10;stroke-dasharray:none;stroke-opacity:1"
       transform="matrix(0.13333333,0,0,-0.13333333,0,64)" />
    <path
       id="path9"
       d="m 0.98359375,-0.50370656 h -0.28125 c -0.2109375,0 -0.328125,0.0820313 -0.328125,0.24609375 0,0.1640625 0.1171875,0.2578124975 0.328125,0.2578124975 H 2.89375 C 4.1945312,0.01191844 5.2257812,-1.1013628 5.2375,-2.5310503 v -0.5507813 c -0.011719,-1.4179687 -1.0429688,-2.53125 -2.34375,-2.53125 H 0.70234375 c -0.2109375,0 -0.328125,0.082031 -0.328125,0.2578125 0,0.1640625 0.1171875,0.2578125 0.328125,0.2578125 h 0.28125 z m 0.51562495,0 V -5.0974566 h 1.3828125 c 0.9375,-0.070312 1.7929688,0.8203125 1.8398438,1.9335938 v 0.7148437 c -0.023437,1.03125 -0.8789063,1.95703129 -1.78125,1.94531254 z m 0,0"
       style="fill:#000000;fill-opacity:1;fill-rule:nonzero;stroke:none"
       aria-label="D"
       transform="matrix(1.3333333,0,0,1.3333333,121.01667,55.12864)" />
    <path
       id="path10"
       d="m 1035.68,100.574 c 0,49.707 -40.297,90 -90,90 -49.707,0 -90,-40.293 -90,-90 0,-49.7068 40.293,-89.9998 90,-89.9998 49.703,0 90,40.293 90,89.9998 z"
       style="fill:none;stroke:#000000;stroke-width:5;stroke-linecap:butt;stroke-linejoin:round;stroke-miterlimit:10;stroke-dasharray:none;stroke-opacity:1"
       transform="matrix(0.13333333,0,0,-0.13333333,0,64)" />
    <path
       id="path11"
       d="m 185.285,384.039 h 386.93"
       style="fill:none;stroke:#000000;stroke-width:5;stroke-linecap:round;stroke-linejoin:round;stroke-miterlimit:10;stroke-dasharray:none;stroke-opacity:1"
       transform="matrix(0.13333333,0,0,-0.13333333,0,64)" />
    <path
       id="path12"
       d="m 535.262,368.73 36.953,15.309 -36.953,15.309"
       style="fill:#000000;fill-opacity:1;fill-rule:nonzero;stroke:none"
       transform="matrix(0.13333333,0,0,-0.13333333,0,64)" />
    <path
       id="path13"
       d="m 535.262,368.73 36.953,15.309 -36.953,15.309 z"
       style="fill:none;stroke:#000000;stroke-width:5;stroke-linecap:round;stroke-linejoin:round;stroke-miterlimit:10;stroke-dasharray:none;stroke-opacity:1"
       transform="matrix(0.13333333,0,0,-0.13333333,0,64)" />
    <path
       id="path14"
       d="M 752.215,384.039 H 1139.14"
       style="fill:none;stroke:#000000;stroke-width:5;stroke-linecap:round;stroke-linejoin:round;stroke-miterlimit:10;stroke-dasharray:none;stroke-opacity:1"
       transform="matrix(0.13333333,0,0,-0.13333333,0,64)" />
    <path
       id="path15"
       d="m 1102.19,368.73 36.95,15.309 -36.95,15.309"
       style="fill:#000000;fill-opacity:1;fill-rule:nonzero;stroke:none"
       transform="matrix(0.13333333,0,0,-0.13333333,0,64)" />
    <path
       id="path16"
       d="m 1102.19,368.73 36.95,15.309 -36.95,15.309 z"
       style="fill:none;stroke:#000000;stroke-width:5;stroke-linecap:round;stroke-linejoin:round;stroke-miterlimit:10;stroke-dasharray:none;stroke-opacity:1"
       transform="matrix(0.13333333,0,0,-0.13333333,0,64)" />
    <path
       id="path17"
       d="M 442.387,164.215 598.574,320.398"
       style="fill:none;stroke:#000000;stroke-width:5;stroke-linecap:round;stroke-linejoin:round;stroke-miterlimit:10;stroke-dasharray:none;stroke-opacity:1"
       transform="matrix(0.13333333,0,0,-0.13333333,0,64)" />
    <path
       id="path18"
       d="m 583.266,283.445 15.308,36.953 -36.957,-15.308"
       style="fill:#000000;fill-opacity:1;fill-rule:nonzero;stroke:none"
       transform="matrix(0.13333333,0,0,-0.13333333,0,64)" />
    <path
       id="path19"
       d="m 583.266,283.445 15.308,36.953 -36.957,-15.308 z"
       style="fill:none;stroke:#000000;stroke-width:5;stroke-linecap:round;stroke-linejoin:round;stroke-miterlimit:10;stroke-dasharray:none;stroke-opacity:1"
       transform="matrix(0.13333333,0,0,-0.13333333,0,64)" />
    <path
       id="path20"
       d="M 468.75,100.574 H 855.68"
       style="fill:none;stroke:#000000;stroke-width:5;stroke-linecap:round;stroke-linejoin:round;stroke-miterlimit:10;stroke-dasharray:none;stroke-opacity:1"
       transform="matrix(0.13333333,0,0,-0.13333333,0,64)" />
    <path
       id="path21"
       d="m 818.723,85.2656 36.957,15.3084 -36.957,15.309"
       style="fill:#000000;fill-opacity:1;fill-rule:nonzero;stroke:none"
       transform="matrix(0.13333333,0,0,-0.13333333,0,64)" />
    <path
       id="path22"
       d="m 818.723,85.2656 36.957,15.3084 -36.957,15.309 z"
       style="fill:none;stroke:#000000;stroke-width:5;stroke-linecap:round;stroke-linejoin:round;stroke-miterlimit:10;stroke-dasharray:none;stroke-opacity:1"
       transform="matrix(0.13333333,0,0,-0.13333333,0,64)" />
    <path
       id="path23"
       d="M 725.852,320.402 882.039,164.215"
       style="fill:none;stroke:#000000;stroke-width:5;stroke-linecap:round;stroke-linejoin:round;stroke-miterlimit:10;stroke-dasharray:none;stroke-opacity:1"
       transform="matrix(0.13333333,0,0,-0.13333333,0,64)" />
    <path
       id="path24"
       d="m 845.082,179.523 36.957,-15.308 -15.309,36.953"
       style="fill:#000000;fill-opacity:1;fill-rule:nonzero;stroke:none"
       transform="matrix(0.13333333,0,0,-0.13333333,0,64)" />
    <path
       id="path25"
       d="m 845.082,179.523 36.957,-15.308 -15.309,36.953 z"
       style="fill:none;stroke:#000000;stroke-width:5;stroke-linecap:round;stroke-linejoin:round;stroke-miterlimit:10;stroke-dasharray:none;stroke-opacity:1"
       transform="matrix(0.13333333,0,0,-0.13333333,0,64)" />
    <path
       id="path26"
       d="M 971.488,186.816 C 1011,246.297 1089.17,283.164 1158.32,328.492"
       style="fill:none;stroke:#000000;stroke-width:5;stroke-linecap:round;stroke-linejoin:round;stroke-miterlimit:10;stroke-dasharray:none;stroke-opacity:1"
       transform="matrix(0.13333333,0,0,-0.13333333,0,64)" />
    <path
       id="path27"
       d="m 1135.22,295.84 c 7.85,10.801 15.62,21.672 23.1,32.652 -13.05,-2.476 -26.24,-4.664 -39.42,-6.754"
       style="fill:#000000;fill-opacity:1;fill-rule:nonzero;stroke:none"
       transform="matrix(0.13333333,0,0,-0.13333333,0,64)" />
    <path
       id="path28"
       d="m 1135.22,295.84 c 7.85,10.801 15.62,21.672 23.1,32.652 -13.05,-2.476 -26.24,-4.664 -39.42,-6.754 z"
       style="fill:none;stroke:#000000;stroke-width:5;stroke-linecap:round;stroke-linejoin:round;stroke-miterlimit:10;stroke-dasharray:none;stroke-opacity:1"
       transform="matrix(0.13333333,0,0,-0.13333333,0,64)" />
    <path
       id="path29"
       d="M 1203.33,297.797 C 1163.82,238.32 1085.65,201.449 1016.5,156.121"
       style="fill:none;stroke:#000000;stroke-width:5;stroke-linecap:round;stroke-linejoin:round;stroke-miterlimit:10;stroke-dasharray:none;stroke-opacity:1"
       transform="matrix(0.13333333,0,0,-0.13333333,0,64)" />
    <path
       id="path30"
       d="m 1039.6,188.773 c -7.85,-10.8 -15.62,-21.668 -23.1,-32.652 13.05,2.477 26.24,4.664 39.42,6.754"
       style="fill:#000000;fill-opacity:1;fill-rule:nonzero;stroke:none"
       transform="matrix(0.13333333,0,0,-0.13333333,0,64)" />
    <path
       id="path31"
       d="m 1039.6,188.773 c -7.85,-10.8 -15.62,-21.668 -23.1,-32.652 13.05,2.477 26.24,4.664 39.42,6.754 z"
       style="fill:none;stroke:#000000;stroke-width:5;stroke-linecap:round;stroke-linejoin:round;stroke-miterlimit:10;stroke-dasharray:none;stroke-opacity:1"
       transform="matrix(0.13333333,0,0,-0.13333333,0,64)" />
  </g>
</svg>
